<svg xmlns="http://www.w3.org/2000/svg" width="57" height="57" fill="none"><path fill="#B1060F" stroke="#000" stroke-width="0.612" d="m31.36 9.19-.015 8.541-.015 8.542-.699-1.983v-.004l-.904 19.015a677.512 677.512 0 0 0 1.369 3.873c.007.007.513.038 1.124.069 1.852.092 4.147.29 5.888.508.403.05.75.076.77.057.021-.019.032-8.716.026-19.326L38.89 9.19H31.36ZM17.739 9.165v19.311c0 10.621.01 19.322.023 19.335.012.012.666-.05 1.453-.139a110.87 110.87 0 0 1 2.416-.244c.831-.071 3.313-.231 3.6-.233.084 0 .09-.434.102-8.18l.013-8.179.6 1.71.213.604.902-19.01-.31-.883-1.39-3.953-.05-.14h-7.572Z"></path><path fill="url(#logos_netflix-icon_svg__a)" d="M17.739 9.165v10.84L25.33 40.26c0-.464.002-.715.003-1.246l.013-8.179.6 1.71c3.343 9.516 5.14 14.618 5.15 14.628.007.007.513.038 1.124.069 1.852.092 4.147.29 5.888.508.403.05.75.076.77.057.015-.013.024-4.277.027-10.293l-7.556-21.851-.004 2.068-.015 8.54-.698-1.982A17010.217 17010.217 0 0 1 25.36 9.304l-.05-.14H17.74Z"></path><path fill="#E50914" d="m17.739 9.165 7.606 21.681v-.01l.6 1.71c3.344 9.516 5.14 14.618 5.15 14.628.008.007.514.038 1.125.069a86.58 86.58 0 0 1 5.888.508c.4.05.745.075.77.057L31.33 26.27v.004l-.699-1.983A16327.147 16327.147 0 0 1 25.36 9.304l-.05-.14h-7.571Z"></path><path fill="#B1060F" stroke="#000" stroke-width="0.612" d="m31.36 9.19-.015 8.541-.015 8.542-.699-1.983v-.004l-.904 19.015a677.512 677.512 0 0 0 1.369 3.873c.007.007.513.038 1.124.069 1.852.092 4.147.29 5.888.508.403.05.75.076.77.057.021-.019.032-8.716.026-19.326L38.89 9.19H31.36ZM17.739 9.165v19.311c0 10.621.01 19.322.023 19.335.012.012.666-.05 1.453-.139a110.87 110.87 0 0 1 2.416-.244c.831-.071 3.313-.231 3.6-.233.084 0 .09-.434.102-8.18l.013-8.179.6 1.71.213.604.902-19.01-.31-.883-1.39-3.953-.05-.14h-7.572Z"></path><path fill="url(#logos_netflix-icon_svg__b)" d="M17.739 9.165v10.84L25.33 40.26c0-.464.002-.715.003-1.246l.013-8.179.6 1.71c3.343 9.516 5.14 14.618 5.15 14.628.007.007.513.038 1.124.069 1.852.092 4.147.29 5.888.508.403.05.75.076.77.057.015-.013.024-4.277.027-10.293l-7.556-21.851-.004 2.068-.015 8.54-.698-1.982A17010.217 17010.217 0 0 1 25.36 9.304l-.05-.14H17.74Z"></path><path fill="#E50914" d="m17.739 9.165 7.606 21.681v-.01l.6 1.71c3.344 9.516 5.14 14.618 5.15 14.628.008.007.514.038 1.125.069a86.58 86.58 0 0 1 5.888.508c.4.05.745.075.77.057L31.33 26.27v.004l-.699-1.983A16327.147 16327.147 0 0 1 25.36 9.304l-.05-.14h-7.571Z"></path><defs><radialGradient id="logos_netflix-icon_svg__a" cx="0" cy="0" r="1" gradientTransform="matrix(14.909 0 0 14.9971 27.97 15.62)" gradientUnits="userSpaceOnUse"><stop></stop><stop offset="1" stop-opacity="0"></stop></radialGradient><radialGradient id="logos_netflix-icon_svg__b" cx="0" cy="0" r="1" gradientTransform="matrix(14.909 0 0 14.9971 27.97 15.62)" gradientUnits="userSpaceOnUse"><stop></stop><stop offset="1" stop-opacity="0"></stop></radialGradient></defs></svg>